<?xml version="1.0" encoding="utf-8"?><svg viewBox="0 0 103 32" xmlns="http://www.w3.org/2000/svg" xmlns:xlink="http://www.w3.org/1999/xlink"><style>:root>svg{display:none}:root>svg:target{display:block}</style><svg viewBox="0 0 24 24" id="arrow" xmlns="http://www.w3.org/2000/svg"><g clip-path="url(#aclip0_3_1403)"><path d="M12 14l7-7 2 2-9 9-9-9 2-2 7 7z"/></g><defs><clipPath id="aclip0_3_1403"><path d="M0 0h24v24H0z"/></clipPath></defs></svg><svg viewBox="0 0 103 20" id="big-arrow" xmlns="http://www.w3.org/2000/svg"><path d="M101.707 10.707a1 1 0 000-1.414l-6.364-6.364a1 1 0 10-1.414 1.414L99.586 10l-5.657 5.657a1 1 0 001.414 1.414l6.364-6.364zM101 9H1v2h100V9z"/></svg><svg viewBox="0 0 14 14" id="button-close" xmlns="http://www.w3.org/2000/svg"><path d="M13 1L1 13M1 1l12 12"/></svg><svg viewBox="0 0 32 32" id="cart" xmlns="http://www.w3.org/2000/svg"><g clip-path="url(#dclip0_3_1374)"><path d="M5.334 21.333v-16H2.667V2.667h4A1.333 1.333 0 018 4v16h16.584l2.667-10.667H10.667V6.667H28.96a1.333 1.333 0 011.294 1.657L26.92 21.657a1.333 1.333 0 01-1.293 1.01H6.667a1.333 1.333 0 01-1.333-1.334zM8 30.667a2.667 2.667 0 110-5.334 2.667 2.667 0 010 5.334zm16 0a2.667 2.667 0 110-5.334 2.667 2.667 0 010 5.334z"/></g><defs><clipPath id="dclip0_3_1374"><path d="M0 0h32v32H0z"/></clipPath></defs></svg><svg viewBox="0 0 32 32" id="document" xmlns="http://www.w3.org/2000/svg"><g clip-path="url(#eclip0_3_1377)"><path d="M28 10.667V27.99a1.334 1.334 0 01-1.324 1.342H5.324A1.324 1.324 0 014 28.011V3.989a1.34 1.34 0 011.336-1.322h14.66l8.004 8zM25.333 12h-6.666V5.333h-12v21.334h18.666V12zM10.667 9.333h4V12h-4V9.333zm0 5.334h10.666v2.666H10.667v-2.666zm0 5.333h10.666v2.667H10.667V20z"/></g><defs><clipPath id="eclip0_3_1377"><path d="M0 0h32v32H0z"/></clipPath></defs></svg><svg viewBox="0 0 32 32" id="instagram" xmlns="http://www.w3.org/2000/svg"><g clip-path="url(#fclip0_3_1395)"><path d="M16 2.667c3.622 0 4.075.013 5.496.08 1.42.066 2.387.289 3.237.62a6.5 6.5 0 012.363 1.537 6.545 6.545 0 011.537 2.362c.33.85.553 1.818.62 3.238.063 1.421.08 1.873.08 5.496 0 3.622-.013 4.075-.08 5.496-.067 1.42-.29 2.387-.62 3.237a6.51 6.51 0 01-1.537 2.363 6.553 6.553 0 01-2.363 1.537c-.85.33-1.817.553-3.237.62-1.421.063-1.873.08-5.496.08s-4.075-.013-5.496-.08c-1.42-.067-2.387-.29-3.237-.62a6.52 6.52 0 01-2.363-1.537 6.539 6.539 0 01-1.538-2.363c-.33-.85-.553-1.817-.62-3.237-.062-1.421-.08-1.873-.08-5.496s.014-4.075.08-5.496c.067-1.421.29-2.387.62-3.237a6.507 6.507 0 011.538-2.363 6.53 6.53 0 012.362-1.538c.851-.33 1.816-.553 3.238-.62 1.421-.062 1.873-.08 5.496-.08zm0 6.666a6.666 6.666 0 100 13.333 6.666 6.666 0 000-13.333zM24.666 9a1.667 1.667 0 10-3.333 0 1.667 1.667 0 003.334 0zM16 12a4 4 0 110 8 4 4 0 010-8z"/></g><defs><clipPath id="fclip0_3_1395"><path d="M0 0h32v32H0z"/></clipPath></defs></svg><svg viewBox="0 0 18 18" id="phone" xmlns="http://www.w3.org/2000/svg"><g clip-path="url(#gclip0_3_1380)"><path d="M15.75 12.315v2.652a.75.75 0 01-.697.748c-.328.023-.596.035-.803.035-6.628 0-12-5.372-12-12 0-.207.011-.475.034-.803a.75.75 0 01.749-.697h2.652a.375.375 0 01.374.337c.017.173.032.31.047.414.15 1.04.455 2.052.907 3.001.07.15.024.33-.11.426l-1.62 1.156a9.785 9.785 0 005.134 5.133l1.155-1.616a.347.347 0 01.43-.111 10.424 10.424 0 003.412.951.375.375 0 01.337.374h-.001z"/></g><defs><clipPath id="gclip0_3_1380"><path d="M0 0h18v18H0z"/></clipPath></defs></svg><svg viewBox="0 0 32 32" id="star" xmlns="http://www.w3.org/2000/svg"><g clip-path="url(#hclip0_1_1345)"><path d="M16.217 23.68l-9.404 5.264 2.1-10.57L1 11.055l10.703-1.27L16.217 0l4.515 9.787 10.703 1.269-7.914 7.317 2.1 10.571-9.404-5.264zm0-3.056l5.663 3.17-1.265-6.365 4.764-4.406-6.444-.764-2.718-5.892L13.5 12.26l-6.444.763 4.764 4.406-1.265 6.364 5.662-3.169z"/></g><defs><clipPath id="hclip0_1_1345"><path d="M0 0h32v32H0z"/></clipPath></defs></svg><svg viewBox="0 0 32 32" id="twitter" xmlns="http://www.w3.org/2000/svg"><g clip-path="url(#iclip0_3_1398)"><path d="M29.55 7.541c-1.019.45-2.098.746-3.203.878A5.594 5.594 0 0028.8 5.333a11.144 11.144 0 01-3.541 1.354 5.576 5.576 0 00-9.502 5.085A15.832 15.832 0 014.264 5.945a5.557 5.557 0 00-.755 2.804c0 1.934.984 3.642 2.48 4.642a5.557 5.557 0 01-2.525-.698v.07a5.58 5.58 0 004.473 5.468 5.614 5.614 0 01-2.52.096 5.58 5.58 0 005.21 3.873 11.191 11.191 0 01-8.255 2.31 15.773 15.773 0 008.547 2.506c10.257 0 15.866-8.497 15.866-15.867 0-.24-.006-.482-.017-.72a11.325 11.325 0 002.783-2.886l-.002-.002z"/></g><defs><clipPath id="iclip0_3_1398"><path d="M0 0h32v32H0z"/></clipPath></defs></svg></svg>